<?xml version="1.0" encoding="UTF-8" standalone="no"?>
<!DOCTYPE svg PUBLIC "-//W3C//DTD SVG 1.1//EN"
 "http://www.w3.org/Graphics/SVG/1.1/DTD/svg11.dtd">
<!-- Generated by graphviz version 2.47.0 (20210316.0004)
 -->
<!-- Title: dependencies Pages: 1 -->
<svg width="1234pt" height="284pt"
 viewBox="0.00 0.00 1234.00 284.00" xmlns="http://www.w3.org/2000/svg" xmlns:xlink="http://www.w3.org/1999/xlink">
<g id="graph0" class="graph" transform="scale(1 1) rotate(0) translate(4 280)">
<title>dependencies</title>
<polygon fill="white" stroke="transparent" points="-4,4 -4,-280 1230,-280 1230,4 -4,4"/>
<text text-anchor="start" x="592.01" y="-42.4" font-family="Times-12" font-weight="bold" font-size="14.00">Legend</text>
<polygon fill="#ffffb3" stroke="transparent" points="379,-10 379,-30 399,-30 399,-10 379,-10"/>
<text text-anchor="start" x="402.63" y="-15.4" font-family="Times-12" font-size="14.00"> &#160;Declarations</text>
<polygon fill="#8dd3c7" stroke="transparent" points="492,-10 492,-30 512,-30 512,-10 492,-10"/>
<text text-anchor="start" x="515.73" y="-15.4" font-family="Times-12" font-size="14.00"> &#160;Module</text>
<polygon fill="#80b1d3" stroke="transparent" points="578,-10 578,-30 598,-30 598,-10 578,-10"/>
<text text-anchor="start" x="601.78" y="-15.4" font-family="Times-12" font-size="14.00"> &#160;Bootstrap</text>
<polygon fill="#fdb462" stroke="transparent" points="675,-10 675,-30 695,-30 695,-10 675,-10"/>
<text text-anchor="start" x="698.67" y="-15.4" font-family="Times-12" font-size="14.00"> &#160;Providers</text>
<polygon fill="#fb8072" stroke="transparent" points="771,-10 771,-30 791,-30 791,-10 771,-10"/>
<text text-anchor="start" x="794.73" y="-15.4" font-family="Times-12" font-size="14.00"> &#160;Exports</text>
<g id="clust1" class="cluster">
<title>cluster_AppModule</title>
<polygon fill="none" stroke="black" stroke-dasharray="1,5" points="8,-70 8,-268 1218,-268 1218,-70 8,-70"/>
</g>
<g id="clust2" class="cluster">
<title>cluster_AppModule_declarations</title>
<polygon fill="none" stroke="black" points="348,-78 348,-130 1210,-130 1210,-78 348,-78"/>
</g>
<g id="clust11" class="cluster">
<title>cluster_AppModule_providers</title>
<polygon fill="none" stroke="black" points="168,-78 168,-130 340,-130 340,-78 168,-78"/>
</g>
<g id="clust8" class="cluster">
<title>cluster_AppModule_imports</title>
<polygon fill="none" stroke="black" points="16,-78 16,-130 160,-130 160,-78 16,-78"/>
</g>
<g id="clust10" class="cluster">
<title>cluster_AppModule_bootstrap</title>
<polygon fill="none" stroke="black" points="512,-208 512,-260 636,-260 636,-208 512,-208"/>
</g>
<!-- AppComponent -->
<g id="node1" class="node">
<title>AppComponent</title>
<polygon fill="#ffffb3" stroke="black" points="1201.94,-122 1096.06,-122 1096.06,-86 1201.94,-86 1201.94,-122"/>
<text text-anchor="middle" x="1149" y="-99.8" font-family="Times,serif" font-size="14.00">AppComponent</text>
</g>
<!-- AppModule -->
<g id="node6" class="node">
<title>AppModule</title>
<polygon fill="#8dd3c7" stroke="black" points="615.66,-187 612.66,-191 591.66,-191 588.66,-187 532.34,-187 532.34,-151 615.66,-151 615.66,-187"/>
<text text-anchor="middle" x="574" y="-164.8" font-family="Times,serif" font-size="14.00">AppModule</text>
</g>
<!-- AppComponent&#45;&gt;AppModule -->
<g id="edge1" class="edge">
<title>AppComponent&#45;&gt;AppModule</title>
<path fill="none" stroke="black" d="M1149,-122.29C1149,-144.21 1149,-178 1149,-178 1149,-178 625.82,-178 625.82,-178"/>
<polygon fill="black" stroke="black" points="625.82,-174.5 615.82,-178 625.82,-181.5 625.82,-174.5"/>
</g>
<!-- ChangePasswordComponent -->
<g id="node2" class="node">
<title>ChangePasswordComponent</title>
<polygon fill="#ffffb3" stroke="black" points="1077.75,-122 900.25,-122 900.25,-86 1077.75,-86 1077.75,-122"/>
<text text-anchor="middle" x="989" y="-99.8" font-family="Times,serif" font-size="14.00">ChangePasswordComponent</text>
</g>
<!-- ChangePasswordComponent&#45;&gt;AppModule -->
<g id="edge2" class="edge">
<title>ChangePasswordComponent&#45;&gt;AppModule</title>
<path fill="none" stroke="black" d="M989,-122.11C989,-141.34 989,-169 989,-169 989,-169 625.69,-169 625.69,-169"/>
<polygon fill="black" stroke="black" points="625.69,-165.5 615.69,-169 625.69,-172.5 625.69,-165.5"/>
</g>
<!-- CompanyRegistrationComponent -->
<g id="node3" class="node">
<title>CompanyRegistrationComponent</title>
<polygon fill="#ffffb3" stroke="black" points="882.21,-122 677.79,-122 677.79,-86 882.21,-86 882.21,-122"/>
<text text-anchor="middle" x="780" y="-99.8" font-family="Times,serif" font-size="14.00">CompanyRegistrationComponent</text>
</g>
<!-- CompanyRegistrationComponent&#45;&gt;AppModule -->
<g id="edge3" class="edge">
<title>CompanyRegistrationComponent&#45;&gt;AppModule</title>
<path fill="none" stroke="black" d="M780,-122.03C780,-138.4 780,-160 780,-160 780,-160 625.69,-160 625.69,-160"/>
<polygon fill="black" stroke="black" points="625.69,-156.5 615.69,-160 625.69,-163.5 625.69,-156.5"/>
</g>
<!-- ForgetPasswordComponent -->
<g id="node4" class="node">
<title>ForgetPasswordComponent</title>
<polygon fill="#ffffb3" stroke="black" points="659.54,-122 488.46,-122 488.46,-86 659.54,-86 659.54,-122"/>
<text text-anchor="middle" x="574" y="-99.8" font-family="Times,serif" font-size="14.00">ForgetPasswordComponent</text>
</g>
<!-- ForgetPasswordComponent&#45;&gt;AppModule -->
<g id="edge4" class="edge">
<title>ForgetPasswordComponent&#45;&gt;AppModule</title>
<path fill="none" stroke="black" d="M574,-122.11C574,-122.11 574,-140.99 574,-140.99"/>
<polygon fill="black" stroke="black" points="570.5,-140.99 574,-150.99 577.5,-140.99 570.5,-140.99"/>
</g>
<!-- LoginComponent -->
<g id="node5" class="node">
<title>LoginComponent</title>
<polygon fill="#ffffb3" stroke="black" points="470.28,-122 355.72,-122 355.72,-86 470.28,-86 470.28,-122"/>
<text text-anchor="middle" x="413" y="-99.8" font-family="Times,serif" font-size="14.00">LoginComponent</text>
</g>
<!-- LoginComponent&#45;&gt;AppModule -->
<g id="edge5" class="edge">
<title>LoginComponent&#45;&gt;AppModule</title>
<path fill="none" stroke="black" d="M413,-122.03C413,-138.4 413,-160 413,-160 413,-160 522.12,-160 522.12,-160"/>
<polygon fill="black" stroke="black" points="522.12,-163.5 532.12,-160 522.12,-156.5 522.12,-163.5"/>
</g>
<!-- AppComponent  -->
<g id="node8" class="node">
<title>AppComponent </title>
<polygon fill="#80b1d3" stroke="black" points="628.44,-252 519.56,-252 519.56,-216 628.44,-216 628.44,-252"/>
<text text-anchor="middle" x="574" y="-229.8" font-family="Times,serif" font-size="14.00">AppComponent </text>
</g>
<!-- AppModule&#45;&gt;AppComponent  -->
<g id="edge7" class="edge">
<title>AppModule&#45;&gt;AppComponent </title>
<path fill="none" stroke="black" stroke-dasharray="1,5" d="M574,-187.11C574,-187.11 574,-205.99 574,-205.99"/>
<polygon fill="black" stroke="black" points="570.5,-205.99 574,-215.99 577.5,-205.99 570.5,-205.99"/>
</g>
<!-- AppRoutingModule -->
<g id="node7" class="node">
<title>AppRoutingModule</title>
<polygon fill="#8dd3c7" stroke="black" points="152.27,-122 149.27,-126 128.27,-126 125.27,-122 23.73,-122 23.73,-86 152.27,-86 152.27,-122"/>
<text text-anchor="middle" x="88" y="-99.8" font-family="Times,serif" font-size="14.00">AppRoutingModule</text>
</g>
<!-- AppRoutingModule&#45;&gt;AppModule -->
<g id="edge6" class="edge">
<title>AppRoutingModule&#45;&gt;AppModule</title>
<path fill="none" stroke="black" d="M88,-122.29C88,-144.21 88,-178 88,-178 88,-178 522.14,-178 522.14,-178"/>
<polygon fill="black" stroke="black" points="522.14,-181.5 532.14,-178 522.14,-174.5 522.14,-181.5"/>
</g>
<!-- TokenInterceptor -->
<g id="node9" class="node">
<title>TokenInterceptor</title>
<ellipse fill="#fdb462" stroke="black" cx="254" cy="-104" rx="78.13" ry="18"/>
<text text-anchor="middle" x="254" y="-99.8" font-family="Times,serif" font-size="14.00">TokenInterceptor</text>
</g>
<!-- TokenInterceptor&#45;&gt;AppModule -->
<g id="edge8" class="edge">
<title>TokenInterceptor&#45;&gt;AppModule</title>
<path fill="none" stroke="black" d="M254,-122.11C254,-141.34 254,-169 254,-169 254,-169 522.17,-169 522.17,-169"/>
<polygon fill="black" stroke="black" points="522.17,-172.5 532.17,-169 522.17,-165.5 522.17,-172.5"/>
</g>
</g>
</svg>
